<svg width="12" height="8" viewBox="0 0 12 8" fill="none" xmlns="http://www.w3.org/2000/svg">
<path d="M10.6655 0.461177H7.71873V1.28068H10.6771L10.6655 0.461177ZM10.0436 6.09896C9.82006 6.24706 9.55607 6.3222 9.28801 6.31401C9.11057 6.33249 8.93127 6.31419 8.76126 6.26019C8.5912 6.20614 8.43415 6.11762 8.29996 6.00016C8.05178 5.71879 7.92257 5.352 7.9396 4.97721H11.7872C11.815 4.58695 11.7817 4.19475 11.6884 3.81478C11.5983 3.45328 11.4405 3.1121 11.2235 2.80928C11.005 2.51554 10.7228 2.2751 10.3981 2.10601C10.0369 1.92789 9.63844 1.83824 9.23571 1.84447C8.85694 1.84169 8.48147 1.91481 8.13141 2.05952C7.81087 2.19464 7.52044 2.39222 7.27702 2.64073C7.03431 2.89421 6.84634 3.19493 6.72487 3.52417C6.5945 3.87962 6.52953 4.25572 6.53307 4.63429C6.52709 5.01825 6.59008 5.40016 6.71906 5.76186C6.82862 6.08938 7.00252 6.39173 7.23053 6.65112C7.46645 6.90575 7.75642 7.10436 8.07911 7.23234C8.43894 7.36944 8.82166 7.43652 9.20666 7.42995C9.74684 7.44681 10.2802 7.30534 10.7411 7.0231C11.2066 6.69233 11.5417 6.20911 11.6884 5.65725H10.404C10.3352 5.83981 10.2087 5.99494 10.0436 6.09898L10.0436 6.09896ZM8.05003 3.70435C8.09525 3.55944 8.17035 3.42562 8.27048 3.3115C8.37057 3.19738 8.49344 3.10549 8.63125 3.04176C8.81375 2.95963 9.0124 2.91989 9.21246 2.92552C9.35695 2.91318 9.50243 2.93224 9.63884 2.9814C9.77531 3.03055 9.89952 3.10865 10.0029 3.21031C10.2004 3.45206 10.3271 3.74375 10.3691 4.05307H7.95704C7.96646 3.93496 7.98785 3.81811 8.02098 3.70434H8.05004L8.05003 3.70435ZM4.97541 3.42536C5.27122 3.30218 5.52826 3.10137 5.71936 2.84415C5.89501 2.57099 5.98231 2.25034 5.96928 1.92583C5.98068 1.6299 5.92296 1.33538 5.80073 1.06563C5.69803 0.831942 5.53319 0.630901 5.32414 0.484419C5.10249 0.332121 4.8508 0.229074 4.586 0.182191C4.27262 0.116459 3.95298 0.0852777 3.63281 0.0891952H0.162964V7.40088H3.70836C4.03192 7.40111 4.35418 7.36008 4.66737 7.27882C4.96422 7.20205 5.24545 7.07418 5.4985 6.90103C5.74362 6.73114 5.94322 6.5036 6.07972 6.23845C6.23078 5.94192 6.30477 5.61208 6.29477 5.27944C6.30575 4.86721 6.19015 4.46151 5.96348 4.11701C5.71971 3.77056 5.35816 3.52471 4.94636 3.42536H4.97542H4.97541ZM1.77292 1.3388H3.27826C3.41656 1.33864 3.55462 1.3503 3.69092 1.37368C3.81643 1.39228 3.93697 1.43576 4.04546 1.50154C4.15028 1.56084 4.23522 1.64981 4.28957 1.75728C4.35689 1.88614 4.38897 2.0305 4.38257 2.17575C4.3934 2.30085 4.37427 2.42674 4.32677 2.54297C4.27927 2.6592 4.20475 2.76244 4.1094 2.84416C3.9014 2.98715 3.65249 3.05856 3.40032 3.04758H1.77292V1.3388ZM4.58599 5.66305C4.52628 5.78151 4.43597 5.88182 4.32445 5.95365C4.20838 6.02584 4.0805 6.07699 3.94666 6.10477C3.7979 6.13807 3.64573 6.15365 3.49331 6.15126H1.74967V4.14607H3.49331C3.79253 4.13296 4.08802 4.21652 4.33607 4.38437C4.44814 4.48494 4.53495 4.61048 4.58948 4.75083C4.64402 4.89119 4.66472 5.04241 4.64994 5.19226C4.66565 5.35203 4.64375 5.51325 4.58599 5.66305Z" fill="black" stroke="black" stroke-width="0.00794628"/>
</svg>
