<svg width="13" height="13" viewBox="0 0 13 13" fill="none" xmlns="http://www.w3.org/2000/svg">
<path d="M10.1109 2.81052C9.96606 2.81052 9.82448 2.85347 9.70401 2.93395C9.5836 3.01442 9.48975 3.1288 9.43427 3.2626C9.37886 3.39642 9.3644 3.54366 9.39265 3.68572C9.4209 3.82778 9.4906 3.95827 9.59306 4.06068C9.69546 4.16309 9.82594 4.23285 9.96801 4.26111C10.1101 4.28937 10.2573 4.27486 10.3911 4.21944C10.5249 4.16401 10.6393 4.07013 10.7198 3.94971C10.8002 3.82929 10.8432 3.6877 10.8432 3.54285C10.8432 3.34863 10.7661 3.16236 10.6287 3.02501C10.4914 2.88768 10.3051 2.81052 10.1109 2.81052ZM12.9181 4.28739C12.9063 3.78104 12.8115 3.28007 12.6374 2.80442C12.4822 2.39744 12.2407 2.02893 11.9295 1.72424C11.6273 1.41142 11.258 1.17144 10.8493 1.02242C10.3749 0.843092 9.87336 0.746092 9.36634 0.735591C8.71945 0.698975 8.51196 0.698975 6.85201 0.698975C5.19207 0.698975 4.98457 0.698975 4.33768 0.735591C3.83063 0.746092 3.32911 0.843092 2.85471 1.02242C2.44686 1.17294 2.07779 1.41272 1.77453 1.72424C1.46172 2.02643 1.22173 2.39581 1.07271 2.80442C0.893385 3.27881 0.796385 3.78034 0.785884 4.28739C0.749268 4.93428 0.749268 5.14177 0.749268 6.80172C0.749268 8.46167 0.749268 8.66916 0.785884 9.31605C0.796385 9.82307 0.893385 10.3246 1.07271 10.799C1.22173 11.2077 1.46172 11.577 1.77453 11.8792C2.07779 12.1907 2.44686 12.4305 2.85471 12.581C3.32911 12.7603 3.83063 12.8573 4.33768 12.8678C4.98457 12.9045 5.19207 12.9045 6.85201 12.9045C8.51196 12.9045 8.71945 12.9045 9.36634 12.8678C9.87336 12.8573 10.3749 12.7603 10.8493 12.581C11.258 12.432 11.6273 12.192 11.9295 11.8792C12.2421 11.5757 12.4838 11.2068 12.6374 10.799C12.8115 10.3234 12.9063 9.8224 12.9181 9.31605C12.9181 8.66916 12.9548 8.46167 12.9548 6.80172C12.9548 5.14177 12.9548 4.93428 12.9181 4.28739ZM11.8196 9.24282C11.8152 9.63022 11.7451 10.014 11.6122 10.3779C11.5147 10.6435 11.3582 10.8835 11.1544 11.0797C10.9565 11.2814 10.717 11.4376 10.4526 11.5374C10.0887 11.6704 9.70493 11.7405 9.31752 11.7449C8.70725 11.7755 8.48145 11.7816 6.87642 11.7816C5.2714 11.7816 5.0456 11.7816 4.43533 11.7449C4.03309 11.7525 3.63256 11.6906 3.25139 11.5619C2.99861 11.457 2.77011 11.3011 2.58009 11.1042C2.37753 10.9081 2.22299 10.6679 2.12849 10.4023C1.9795 10.0332 1.89686 9.64065 1.88438 9.24282C1.88438 8.63254 1.84776 8.40674 1.84776 6.80172C1.84776 5.1967 1.84776 4.9709 1.88438 4.36062C1.88711 3.96459 1.95941 3.57212 2.09797 3.2011C2.20542 2.94351 2.37032 2.71389 2.58009 2.5298C2.7655 2.31997 2.99465 2.15332 3.25139 2.04158C3.62339 1.90734 4.01545 1.83718 4.41091 1.83409C5.02119 1.83409 5.24699 1.79747 6.85201 1.79747C8.45703 1.79747 8.68284 1.79747 9.29311 1.83409C9.68052 1.83853 10.0643 1.90869 10.4282 2.04158C10.7055 2.1445 10.9545 2.31184 11.1544 2.5298C11.3544 2.71727 11.5107 2.94645 11.6122 3.2011C11.7478 3.57271 11.818 3.96503 11.8196 4.36062C11.8502 4.9709 11.8563 5.1967 11.8563 6.80172C11.8563 8.40674 11.8502 8.63254 11.8196 9.24282ZM6.85201 3.67101C6.23307 3.67222 5.62839 3.85686 5.11435 4.20159C4.60031 4.54633 4.2 5.0357 3.96397 5.60787C3.72796 6.18004 3.66682 6.80935 3.78832 7.4162C3.9098 8.02311 4.20846 8.58036 4.64654 9.01762C5.08461 9.45483 5.64247 9.7524 6.24959 9.87268C6.85672 9.99303 7.48591 9.93065 8.05761 9.6935C8.62932 9.45641 9.11791 9.0551 9.46162 8.54039C9.80538 8.02569 9.98884 7.42066 9.98884 6.80172C9.98963 6.38984 9.90901 5.98188 9.75156 5.60129C9.59417 5.22069 9.36305 4.87497 9.07153 4.58402C8.78 4.29306 8.43379 4.06261 8.05292 3.90593C7.67199 3.74924 7.2639 3.6694 6.85202 3.67102L6.85201 3.67101ZM6.85201 8.83393C6.45008 8.83393 6.05718 8.71475 5.72297 8.49145C5.38876 8.26815 5.1283 7.95075 4.97449 7.5794C4.82068 7.20811 4.78043 6.79948 4.85885 6.40527C4.93726 6.01106 5.13081 5.64894 5.41502 5.36474C5.69923 5.08053 6.06134 4.88698 6.45555 4.80857C6.84976 4.73015 7.25839 4.7704 7.62968 4.92421C8.00103 5.07802 8.31844 5.3385 8.54173 5.67269C8.76503 6.00687 8.88421 6.3998 8.88421 6.80173C8.88421 7.06861 8.83167 7.33285 8.72951 7.5794C8.62741 7.82602 8.47771 8.04998 8.28902 8.23874C8.10026 8.42743 7.87628 8.57713 7.62968 8.67923C7.38313 8.78139 7.11889 8.83393 6.85201 8.83393Z" fill="black" stroke="black" stroke-width="0.0107301"/>
</svg>
