<svg width="13" height="13" viewBox="0 0 13 13" fill="none" xmlns="http://www.w3.org/2000/svg">
<path d="M11.7279 0.699061H1.38978C1.27356 0.697452 1.15818 0.71874 1.05019 0.761721C0.942205 0.804703 0.843762 0.868543 0.760458 0.949583C0.677153 1.03062 0.61063 1.12728 0.564681 1.23403C0.518732 1.34078 0.494261 1.45554 0.492676 1.57175V12.0318C0.494273 12.148 0.518732 12.2628 0.564681 12.3696C0.61063 12.4763 0.677153 12.573 0.760458 12.654C0.843762 12.7351 0.942217 12.7989 1.05019 12.8419C1.15817 12.8849 1.27356 12.9062 1.38978 12.9045H11.7279C11.844 12.9062 11.9594 12.8849 12.0674 12.8419C12.1754 12.7989 12.2739 12.7351 12.3572 12.654C12.4405 12.573 12.507 12.4763 12.553 12.3696C12.5989 12.2628 12.6234 12.148 12.625 12.0318V1.57175C12.6234 1.45554 12.5989 1.34078 12.553 1.23403C12.507 1.12728 12.4405 1.03062 12.3572 0.949583C12.2739 0.868543 12.1754 0.804714 12.0674 0.761721C11.9594 0.718728 11.8441 0.69744 11.7279 0.699061ZM4.17263 10.915H2.34181V5.42259H4.17263V10.915ZM3.25722 4.65364C3.00473 4.65364 2.76258 4.55334 2.58403 4.3748C2.40549 4.19626 2.30519 3.95411 2.30519 3.70161C2.30519 3.44912 2.40549 3.20697 2.58403 3.02843C2.76258 2.84988 3.00473 2.74958 3.25722 2.74958C3.39129 2.73437 3.52706 2.74766 3.65565 2.78857C3.78424 2.82948 3.90273 2.89709 4.00337 2.98696C4.10401 3.07683 4.18454 3.18695 4.23968 3.31011C4.29482 3.43326 4.32332 3.56667 4.32332 3.70161C4.32332 3.83654 4.29481 3.96995 4.23968 4.09312C4.18455 4.21628 4.10401 4.32639 4.00337 4.41626C3.90273 4.50614 3.78424 4.57374 3.65565 4.61465C3.52706 4.65556 3.39129 4.66885 3.25722 4.65364ZM10.7758 10.915H8.945V7.96742C8.945 7.22899 8.68258 6.74688 8.01738 6.74688C7.81148 6.74838 7.611 6.81296 7.443 6.93191C7.27494 7.05085 7.14739 7.21843 7.07756 7.41207C7.02978 7.55554 7.00908 7.70658 7.01653 7.85757V10.9089H5.18569C5.18569 10.9089 5.18569 5.91691 5.18569 5.41648H7.01653V6.19153C7.18283 5.90294 7.42475 5.66518 7.71616 5.50388C8.00756 5.34257 8.33748 5.26382 8.67038 5.27612C9.89093 5.27612 10.7758 6.06337 10.7758 7.75382V10.915Z" fill="black" stroke="black" stroke-width="0.0107301"/>
</svg>
