<svg width="24" height="25" viewBox="0 0 24 25" fill="none" xmlns="http://www.w3.org/2000/svg">
<path d="M23.389 11.5145L12.9163 1.0418C12.6694 0.803342 12.3386 0.671389 11.9954 0.674366C11.6522 0.677342 11.3239 0.815014 11.0811 1.05773C10.8384 1.30045 10.7007 1.62879 10.6978 1.97203C10.6948 2.31527 10.8267 2.64595 11.0652 2.89287L19.3033 11.131H1.518C1.1708 11.131 0.837845 11.2689 0.592337 11.5143C0.34683 11.7599 0.208923 12.0929 0.208923 12.4401C0.208923 12.7872 0.346853 13.1203 0.592337 13.3657C0.837822 13.6112 1.1708 13.7492 1.518 13.7492H19.3033L11.0652 21.9873C10.9402 22.1081 10.8404 22.2525 10.7718 22.4122C10.7032 22.5719 10.6671 22.7437 10.6656 22.9175C10.6641 23.0913 10.6972 23.2637 10.763 23.4246C10.8288 23.5855 10.926 23.7317 11.049 23.8545C11.1719 23.9775 11.3181 24.0746 11.4789 24.1405C11.6398 24.2063 11.8122 24.2395 11.9861 24.238C12.1598 24.2364 12.3317 24.2003 12.4914 24.1317C12.6511 24.0631 12.7955 23.9634 12.9163 23.8384L23.389 13.3656C23.6343 13.1201 23.7722 12.7872 23.7722 12.4401C23.7722 12.093 23.6343 11.76 23.389 11.5146V11.5145Z" fill="black" stroke="black" stroke-width="0.0175824"/>
</svg>
