<svg width="19" height="18" viewBox="0 0 19 18" fill="none" xmlns="http://www.w3.org/2000/svg">
<path d="M18.1662 8.30585L10.3116 0.451299C10.1265 0.272459 9.8784 0.173494 9.62101 0.175727C9.36361 0.177959 9.11734 0.281213 8.93528 0.463252C8.75325 0.645291 8.64999 0.891543 8.64776 1.14897C8.64553 1.40641 8.74449 1.65442 8.92335 1.8396L15.1019 8.01819H1.76294C1.50253 8.01819 1.25282 8.12162 1.06869 8.30571C0.884558 8.48988 0.781128 8.73959 0.781128 9.00001C0.781128 9.26036 0.884575 9.51015 1.06869 9.69425C1.2528 9.87834 1.50253 9.98184 1.76294 9.98184H15.1019L8.92335 16.1604C8.82959 16.251 8.75476 16.3593 8.70331 16.4791C8.65186 16.5989 8.62477 16.7277 8.62363 16.8581C8.6225 16.9884 8.64734 17.1177 8.6967 17.2384C8.74606 17.359 8.81894 17.4687 8.91115 17.5608C9.00337 17.653 9.113 17.7259 9.2336 17.7753C9.35428 17.8247 9.48356 17.8496 9.61398 17.8484C9.74432 17.8473 9.87318 17.8202 9.99296 17.7687C10.1127 17.7173 10.2211 17.6425 10.3116 17.5487L18.1662 9.69418C18.3502 9.51001 18.4536 9.26038 18.4536 9.00003C18.4536 8.73968 18.3502 8.48999 18.1662 8.30589V8.30585Z" fill="white" stroke="white" stroke-width="0.0158242"/>
</svg>
