<svg width="24" height="18" viewBox="0 0 24 18" fill="none" xmlns="http://www.w3.org/2000/svg">
<path d="M20.255 0.970459H3.75092C2.8559 0.971444 1.99783 1.32743 1.36495 1.96031C0.732067 2.59319 0.376094 3.45127 0.375092 4.34628V14.5338C0.375092 16.395 1.88971 17.9096 3.75092 17.9096H20.255C22.1161 17.9096 23.6308 16.395 23.6308 14.5338V4.34628C23.6308 2.48508 22.1161 0.970459 20.255 0.970459ZM19.2572 3.22101L12.7006 8.39727C12.288 8.71986 11.7179 8.71986 11.3053 8.39727L4.7509 3.22101H19.2572H19.2572ZM20.255 15.6591H3.75092C3.13052 15.6591 2.62564 15.1541 2.62564 14.5338V4.41755L9.90991 10.1677C10.5251 10.6553 11.2678 10.8954 12.0029 10.8954C12.7381 10.8954 13.4808 10.6553 14.0959 10.1677L21.3802 4.4198V14.5338C21.3802 15.1541 20.8754 15.6591 20.255 15.6591Z" fill="white" stroke="white" stroke-width="0.0175824"/>
</svg>
